<?xml version="1.0" standalone="no"?>
<!DOCTYPE svg PUBLIC "-//W3C//DTD SVG 20010904//EN"
 "http://www.w3.org/TR/2001/REC-SVG-20010904/DTD/svg10.dtd">
<svg version="1.0" xmlns="http://www.w3.org/2000/svg"
 width="668.000000pt" height="668.000000pt" viewBox="0 0 668.000000 668.000000"
 preserveAspectRatio="xMidYMid meet">
<metadata>
Created by potrace 1.14, written by Peter Selinger 2001-2017
</metadata>
<g transform="translate(0.000000,668.000000) scale(0.100000,-0.100000)"
fill="#000000" stroke="none">
<path d="M3247 6674 c-1 -1 -47 -4 -102 -8 -55 -3 -118 -8 -140 -11 -22 -3
-60 -7 -85 -10 -392 -47 -858 -207 -1240 -426 -57 -33 -291 -187 -300 -198 -3
-3 -34 -28 -70 -56 -66 -51 -82 -64 -179 -148 -173 -150 -388 -397 -530 -607
-308 -454 -482 -922 -556 -1485 -23 -181 -24 -630 -1 -750 2 -11 7 -47 11 -80
4 -32 8 -67 10 -76 2 -9 6 -32 9 -50 11 -62 17 -94 26 -129 5 -19 11 -48 14
-65 18 -105 124 -424 187 -564 41 -91 137 -278 166 -323 12 -21 23 -40 23 -43
0 -10 161 -247 214 -315 51 -65 128 -160 156 -190 101 -110 215 -222 331 -325
50 -45 235 -186 304 -232 249 -166 556 -317 816 -401 124 -40 237 -73 269 -79
14 -2 45 -9 70 -14 76 -18 81 -19 205 -39 178 -28 276 -35 525 -35 199 0 342
7 420 20 14 2 43 6 65 10 266 39 520 107 775 207 126 50 392 185 508 257 94
59 318 217 342 241 3 3 37 32 75 64 108 91 341 330 426 436 160 201 254 345
365 555 53 102 79 157 144 310 34 80 120 351 134 421 2 10 11 50 20 87 19 83
19 77 1 77 -9 0 -20 -12 -25 -27 -6 -16 -15 -37 -20 -48 -5 -11 -21 -49 -35
-85 -68 -167 -203 -378 -342 -535 -331 -372 -773 -604 -1273 -668 -98 -13
-426 -15 -476 -4 -12 3 -45 8 -75 12 -65 8 -202 39 -284 64 -502 155 -926 498
-1181 956 -107 192 -203 466 -229 655 -15 110 -20 188 -20 335 0 185 6 249 37
395 6 30 12 60 14 65 32 164 153 446 262 614 112 171 315 395 461 506 289 220
601 352 966 409 176 28 427 24 620 -10 149 -26 236 -49 374 -100 399 -149 748
-430 987 -794 72 -111 162 -286 195 -382 18 -50 29 -68 42 -68 13 0 16 6 12
25 -3 14 -7 37 -10 53 -3 15 -8 35 -11 44 -3 10 -7 28 -10 41 -12 68 -109 361
-150 454 -7 18 -21 50 -30 71 -28 65 -135 275 -172 337 -197 332 -427 605
-732 870 -73 63 -293 223 -392 284 -259 162 -517 275 -873 385 -106 32 -285
67 -520 100 -90 13 -506 29 -518 20z"/>
<path d="M3242 3778 c0 -101 0 -199 -1 -218 l-1 -35 -25 38 c-57 83 -205 109
-312 54 -169 -88 -223 -423 -95 -592 94 -125 272 -135 385 -23 26 26 47 44 48
40 0 -4 1 -28 1 -54 0 -46 1 -48 29 -48 16 0 29 6 30 13 1 17 1 979 0 995 -1
6 -14 12 -30 12 l-28 0 -1 -182z m-149 -199 c57 -15 113 -71 133 -131 26 -78
22 -260 -7 -328 -40 -93 -129 -145 -233 -134 -59 6 -115 50 -151 120 -28 54
-30 65 -30 169 0 88 4 120 20 155 30 70 63 107 118 135 55 27 91 31 150 14z"/>
<path d="M3570 3638 c-96 -27 -184 -138 -206 -262 -18 -101 4 -253 46 -321 28
-46 69 -84 112 -106 42 -22 134 -30 193 -17 56 12 145 59 146 78 0 8 2 23 4
33 4 20 -18 23 -34 3 -21 -25 -113 -58 -170 -61 -129 -6 -219 84 -237 239 -7
54 -6 56 17 57 13 1 122 1 241 1 l217 0 -3 74 c-7 126 -63 231 -143 269 -43
21 -132 27 -183 13z m142 -62 c62 -26 113 -108 120 -191 l3 -40 -207 -3 -206
-2 9 37 c5 21 12 50 15 64 9 41 83 118 127 133 52 17 100 18 139 2z"/>
<path d="M4616 3639 c-93 -22 -173 -107 -207 -221 -18 -58 -21 -87 -17 -172 4
-90 9 -110 37 -169 51 -106 116 -147 232 -150 80 -1 160 34 199 88 14 19 28
35 31 35 12 0 -1 -164 -17 -213 -49 -149 -231 -205 -396 -122 l-48 24 0 -33
c0 -36 10 -44 90 -71 29 -10 74 -15 126 -14 127 3 219 51 262 136 41 81 46
133 47 511 l1 362 -32 0 c-32 0 -32 0 -29 -49 l3 -50 -47 48 c-59 60 -143 82
-235 60z m150 -68 c53 -24 77 -49 106 -111 19 -39 22 -62 21 -170 -1 -141 -11
-176 -69 -239 -64 -71 -185 -88 -261 -36 -40 26 -85 92 -97 140 -24 93 -13
232 24 305 55 108 174 156 276 111z"/>
<path d="M5252 3633 c-39 -13 -122 -85 -122 -105 0 -4 -3 -8 -7 -8 -5 0 -7 25
-6 55 l2 55 -32 0 -32 0 0 -345 0 -345 31 0 30 0 1 224 c1 233 6 273 47 331
42 60 82 84 154 91 80 8 151 -50 168 -138 4 -18 7 -139 8 -268 l1 -235 30 -3
30 -3 -1 248 c0 136 -4 264 -8 283 -17 71 -57 129 -110 157 -40 21 -133 24
-184 6z"/>
<path d="M3871 3603 c10 -25 207 -569 231 -635 8 -22 16 -28 38 -28 27 0 30 5
154 338 69 185 126 341 126 345 0 5 -14 7 -31 5 -25 -2 -34 -10 -45 -38 -32
-85 -156 -426 -159 -440 -2 -8 -13 -40 -24 -70 -16 -44 -21 -51 -26 -35 -4 11
-13 37 -21 57 -7 21 -32 92 -55 159 -23 66 -60 175 -84 242 l-42 122 -37 3
c-36 3 -36 3 -25 -25z"/>
<path d="M6262 3463 c55 -93 102 -173 105 -179 2 -6 -44 -85 -102 -175 l-106
-164 32 -3 c18 -2 38 2 45 10 7 7 48 73 92 145 l79 133 85 -143 c82 -138 86
-142 121 -145 21 -2 37 -1 37 2 0 4 -45 78 -100 166 -55 88 -100 164 -100 169
0 9 72 128 167 273 23 37 43 69 43 72 0 4 -15 6 -34 6 -33 0 -36 -4 -124 -150
-63 -104 -93 -146 -99 -137 -5 7 -45 74 -89 149 -79 138 -79 138 -116 138
l-37 0 101 -167z"/>
<path d="M5803 3599 c-61 -24 -141 -96 -171 -154 -19 -37 -23 -56 -36 -137
-11 -71 43 -198 109 -257 71 -62 110 -76 215 -76 111 0 160 18 229 85 41 40
91 128 91 161 0 23 -30 19 -40 -5 -12 -32 -49 -67 -86 -82 -111 -46 -240 39
-237 156 2 96 61 163 154 176 59 8 119 -21 157 -76 50 -73 69 -43 28 46 -29
61 -84 117 -151 152 -68 35 -185 40 -262 11z"/>
</g>
</svg>
